<svg xmlns="http://www.w3.org/2000/svg" width="108" height="35" viewBox="0 0 3700 1000" version="1.1"><path d="M 2390 530.500 L 2390 756 2434 756 L 2478 756 2478 530.500 L 2478 305 2434 305 L 2390 305 2390 530.500 M 3475 378.133 L 3475 451.265 3467.158 443.773 C 3446.966 424.482, 3419.707 415.975, 3378.216 416.018 C 3333.345 416.065, 3302.583 426.949, 3279.776 450.848 C 3252.435 479.498, 3239.856 522.577, 3239.727 588 C 3239.652 626.191, 3242.995 651.818, 3251.373 677.279 C 3266.931 724.556, 3295.775 750.674, 3344 761.152 C 3353.514 763.219, 3357.128 763.435, 3382.500 763.452 C 3412.204 763.473, 3420.754 762.572, 3435.098 757.911 C 3450.031 753.059, 3463.534 744.216, 3472.218 733.601 L 3477.500 727.145 3477.777 741.572 L 3478.053 756 3520.527 756 L 3563 756 3563 530.500 L 3563 305 3519 305 L 3475 305 3475 378.133 M 1821 416.491 C 1805.924 418.320, 1795.144 420.671, 1781.782 425.044 C 1725.544 443.449, 1693.553 486.819, 1685.512 555.559 C 1682.531 581.049, 1683.911 620.957, 1688.563 643.744 C 1700.129 700.393, 1731.037 737.289, 1780.850 753.909 C 1801.653 760.850, 1824.398 764, 1853.717 764 C 1910.438 764, 1950.533 750.864, 1979.645 722.743 C 2010.551 692.889, 2025 650.440, 2025 589.500 C 2025 530.553, 2011.607 489.178, 1982.933 459.538 C 1959.229 435.035, 1928.726 421.459, 1886.201 416.484 C 1870.779 414.680, 1835.894 414.684, 1821 416.491 M 2656 416.491 C 2640.924 418.320, 2630.144 420.671, 2616.782 425.044 C 2560.544 443.449, 2528.553 486.819, 2520.512 555.559 C 2517.531 581.049, 2518.911 620.957, 2523.563 643.744 C 2535.129 700.393, 2566.037 737.289, 2615.850 753.909 C 2636.653 760.850, 2659.398 764, 2688.717 764 C 2745.438 764, 2785.533 750.864, 2814.645 722.743 C 2845.551 692.889, 2860 650.440, 2860 589.500 C 2860 530.553, 2846.607 489.178, 2817.933 459.538 C 2794.229 435.035, 2763.726 421.459, 2721.201 416.484 C 2705.779 414.680, 2670.894 414.684, 2656 416.491 M 1441.500 416.691 C 1416.634 419.931, 1397.606 426.470, 1381.500 437.310 C 1373.887 442.433, 1361.722 454.586, 1355.784 463 C 1341.355 483.445, 1331.723 513.675, 1327.906 550.500 C 1326.084 568.076, 1326.373 609.386, 1328.438 626.500 C 1332.805 662.699, 1342.372 690.753, 1356.937 710.072 C 1362.551 717.517, 1374.435 729.139, 1381.180 733.780 C 1397.306 744.875, 1419.694 752.338, 1445.205 755.122 C 1458.709 756.596, 1494.906 755.654, 1504.971 753.566 C 1527.398 748.913, 1544.792 739.319, 1556.620 725.076 L 1561 719.802 1560.986 734.651 C 1560.951 771.220, 1558.311 792.146, 1552.350 803.099 C 1548.872 809.489, 1541.322 816.513, 1534.718 819.501 C 1523.264 824.685, 1499.274 827.139, 1479.688 825.131 C 1453.977 822.495, 1441.402 815.710, 1436.135 801.631 C 1434.961 798.493, 1434 795.304, 1434 794.544 C 1434 789.809, 1436.109 790, 1383.777 790 L 1334.767 790 1335.431 796.750 C 1337.054 813.268, 1340.171 825.440, 1345.487 836.022 C 1361.642 868.181, 1394.965 884.944, 1452.925 890.068 C 1470.865 891.655, 1521.494 890.736, 1536.954 888.543 C 1604.539 878.959, 1635.549 852.835, 1644.994 797.520 C 1648.675 775.969, 1649 759.054, 1649 589.267 L 1649 424 1607 424 L 1565 424 1565 441.110 L 1565 458.220 1560.684 452.357 C 1546.885 433.613, 1521.384 420.983, 1489.500 417.101 C 1481.143 416.084, 1448.312 415.803, 1441.500 416.691 M 2173 417.491 C 2126.415 423.144, 2094.118 440.124, 2073.144 469.989 C 2059.941 488.789, 2051.040 515.509, 2046.822 549 C 2044.726 565.647, 2045.053 626.174, 2047.322 641.500 C 2049.648 657.210, 2052.472 669.218, 2056.715 681.447 C 2073.725 730.472, 2112.389 757.238, 2174.651 763.092 C 2193.236 764.840, 2231.407 763.783, 2246.500 761.104 C 2303.014 751.070, 2334.041 724.108, 2347.311 673.500 C 2350.130 662.750, 2352.989 646.529, 2352.996 641.250 L 2353 638 2309.115 638 L 2265.230 638 2264.533 643.750 C 2264.149 646.913, 2262.729 652.826, 2261.377 656.891 C 2255.411 674.832, 2243.649 684.726, 2222.500 689.595 C 2211.422 692.145, 2185.342 692.151, 2176 689.604 C 2156.876 684.391, 2146.043 671.208, 2140.558 646.475 C 2137.128 631.006, 2136 617.154, 2136 590.500 C 2136 563.846, 2137.128 549.994, 2140.558 534.525 C 2146.187 509.139, 2157.606 495.844, 2178.319 490.558 C 2191.515 487.191, 2218.511 487.641, 2231.128 491.438 C 2247.983 496.511, 2257.546 507.637, 2263.090 528.624 L 2265.303 537 2309.290 537 L 2353.276 537 2352.605 530.450 C 2351.546 520.112, 2348.292 505.627, 2344.451 494.146 C 2328.878 447.609, 2294.840 423.229, 2236.789 417.036 C 2223.737 415.644, 2186.008 415.913, 2173 417.491 M 2899.257 545.750 C 2899.571 655.851, 2899.771 668.505, 2901.348 678 C 2906.719 710.325, 2917.149 731.303, 2934.439 744.555 C 2952.003 758.016, 2976.486 764, 3014 764 C 3059.267 764, 3086.369 755.172, 3106.518 733.864 C 3109.828 730.364, 3113.292 726.375, 3114.216 725 C 3115.822 722.609, 3115.897 723.232, 3115.948 739.250 L 3116 756 3157.500 756 L 3199 756 3199 590 L 3199 424 3155.038 424 L 3111.076 424 3110.740 531.750 C 3110.413 636.615, 3110.348 639.741, 3108.328 648.500 C 3102.782 672.553, 3091.159 684.977, 3069.781 689.705 C 3060.997 691.648, 3031.351 692.023, 3023 690.297 C 3003.380 686.241, 2993.942 677.151, 2989.404 657.938 C 2987.794 651.125, 2987.615 640.977, 2987.269 537.250 L 2986.891 424 2942.901 424 L 2898.911 424 2899.257 545.750 M 1837.247 488.103 C 1801.978 492.206, 1784.141 510.376, 1777.438 549.027 C 1775.220 561.816, 1774.345 602.855, 1775.956 618.487 C 1780.856 666.013, 1798.423 686.366, 1838.500 690.953 C 1860.693 693.494, 1883.033 690.905, 1897.500 684.117 C 1915.788 675.537, 1926.601 658.235, 1931.698 629.400 C 1934.298 614.690, 1934.253 562.748, 1931.627 548.500 C 1924.398 509.265, 1907.189 492.246, 1870.500 488.047 C 1860.171 486.864, 1847.715 486.886, 1837.247 488.103 M 2672.247 488.103 C 2636.978 492.206, 2619.141 510.376, 2612.438 549.027 C 2610.220 561.816, 2609.345 602.855, 2610.956 618.487 C 2615.856 666.013, 2633.423 686.366, 2673.500 690.953 C 2695.693 693.494, 2718.033 690.905, 2732.500 684.117 C 2750.788 675.537, 2761.601 658.235, 2766.698 629.400 C 2769.298 614.690, 2769.253 562.748, 2766.627 548.500 C 2759.398 509.265, 2742.189 492.246, 2705.500 488.047 C 2695.171 486.864, 2682.715 486.886, 2672.247 488.103 M 1470.061 489.017 C 1444.714 492.571, 1430.665 504.704, 1423.548 529.188 C 1416.737 552.616, 1415.406 604.471, 1420.893 632.650 C 1426.638 662.158, 1438.510 675.801, 1463.500 681.614 C 1474.086 684.076, 1499.953 684.097, 1511 681.653 C 1522.876 679.026, 1533.647 673.201, 1540.830 665.523 C 1556.050 649.253, 1561.719 624.297, 1560.712 578 C 1560.159 552.594, 1558.678 540.874, 1554.403 528.084 C 1551.114 518.239, 1547.900 512.824, 1541.119 505.699 C 1534.347 498.584, 1523.093 492.789, 1511.500 490.449 C 1502.014 488.535, 1479.141 487.744, 1470.061 489.017 M 3389.906 488.962 C 3356.241 493.263, 3340.263 508.989, 3333.467 544.510 C 3329.583 564.809, 3329.625 611.044, 3333.547 633.656 C 3340.189 671.942, 3355.188 687.328, 3389.509 691.059 C 3402.275 692.446, 3419.847 691.726, 3430.346 689.385 C 3464.322 681.808, 3477.220 654.488, 3477.267 590 C 3477.286 564.250, 3476.179 551.941, 3472.414 536.040 C 3466.199 509.793, 3452.873 495.333, 3430.412 490.466 C 3422.058 488.655, 3399.005 487.800, 3389.906 488.962" stroke="none" fill="#0c1424" fill-rule="evenodd"/><path d="M 713.500 101.545 C 614.104 111.713, 535.067 147.964, 469.453 213.478 C 453.028 229.878, 440.127 244.591, 427.326 261.519 C 423.991 265.929, 420.641 270.043, 419.881 270.660 C 419.121 271.277, 412.875 272.313, 406 272.962 C 353.454 277.923, 304.236 294.787, 263.262 321.871 C 246.134 333.192, 232.413 344.528, 215.939 360.969 C 186.361 390.487, 167.616 416.052, 150.621 450.051 C 136.587 478.126, 127.745 505.817, 122.823 537.107 C 120.829 549.779, 120.558 555.208, 120.556 582.500 C 120.553 614.791, 121.277 623.458, 126.111 649 C 135.078 696.375, 154.127 739.816, 182.403 777.373 C 235.638 848.079, 317.602 894.176, 404 902.001 C 412.944 902.811, 468.843 903.030, 600.500 902.769 C 783.138 902.406, 784.612 902.388, 799.571 900.230 C 862.331 891.178, 915.168 871.544, 966.500 838.197 C 991.765 821.785, 1011.440 805.486, 1034.509 781.855 C 1095.511 719.369, 1133.076 641.811, 1145.110 553.500 C 1147.726 534.303, 1148.768 489.774, 1147.077 469.500 C 1140.942 395.986, 1117.188 328.587, 1077.485 272.042 C 1048.807 231.200, 1001.782 186.874, 957.261 158.720 C 909.003 128.202, 860.657 110.562, 803 102.435 C 786.708 100.138, 732.515 99.599, 713.500 101.545 M 729.390 187.067 C 691.758 189.470, 651.967 199.405, 616.257 215.316 C 558.430 241.080, 508.225 288.394, 474 349.380 C 470.975 354.770, 467.700 359.612, 466.723 360.140 C 465.579 360.757, 462.260 360.725, 457.401 360.049 C 444.811 358.298, 417.213 358.757, 402.191 360.967 C 387.348 363.151, 366.884 368.255, 354 372.988 C 281.061 399.780, 225.156 466.600, 210.085 545 C 202.656 583.646, 205.262 620.978, 218.077 659.500 C 246.227 744.122, 317.639 802.914, 406.301 814.463 C 424.097 816.781, 762.744 816.771, 783 814.452 C 880.345 803.307, 966.401 747.983, 1017.028 664 C 1039.172 627.265, 1053.689 585.139, 1059.684 540.216 C 1062.037 522.585, 1062.037 481.415, 1059.684 463.784 C 1049.603 388.245, 1017.338 323.797, 964.047 272.751 C 910.621 221.576, 842.347 191.802, 767.475 187.026 C 750.057 185.915, 747.378 185.918, 729.390 187.067" stroke="none" fill="#43b0ee" fill-rule="evenodd"/></svg>